<svg xmlns="http://www.w3.org/2000/svg" xmlns:xlink="http://www.w3.org/1999/xlink" width="712" zoomAndPan="magnify" viewBox="0 0 534 125.249995" height="167" preserveAspectRatio="xMidYMid meet" version="1.0"><defs><g/></defs><g fill="#ffffff" fill-opacity="1"><g transform="translate(20.104776, 30.410118)"><g><path d="M 0.585938 -10.53125 C 0.585938 -13.574219 1.625 -16.152344 3.699219 -18.257812 C 5.773438 -20.367188 8.269531 -21.421875 11.195312 -21.421875 C 14.136719 -21.421875 16.636719 -20.371094 18.691406 -18.269531 C 20.75 -16.171875 21.777344 -13.59375 21.777344 -10.53125 C 21.777344 -7.453125 20.765625 -4.867188 18.742188 -2.765625 C 16.71875 -0.667969 14.203125 0.382812 11.195312 0.382812 C 8.117188 0.382812 5.582031 -0.660156 3.582031 -2.742188 C 1.585938 -4.824219 0.585938 -7.421875 0.585938 -10.53125 Z M 5.761719 -10.53125 C 5.761719 -9.425781 5.933594 -8.417969 6.273438 -7.511719 C 6.613281 -6.601562 7.207031 -5.832031 8.058594 -5.203125 C 8.910156 -4.574219 9.953125 -4.257812 11.195312 -4.257812 C 12.980469 -4.257812 14.328125 -4.871094 15.238281 -6.09375 C 16.144531 -7.320312 16.601562 -8.796875 16.601562 -10.53125 C 16.601562 -12.25 16.136719 -13.722656 15.210938 -14.957031 C 14.285156 -16.1875 12.945312 -16.804688 11.195312 -16.804688 C 9.460938 -16.804688 8.121094 -16.1875 7.179688 -14.957031 C 6.234375 -13.722656 5.761719 -12.25 5.761719 -10.53125 Z M 5.761719 -10.53125 "/></g></g></g><g fill="#ffffff" fill-opacity="1"><g transform="translate(42.464052, 30.410118)"><g><path d="M 6.324219 -21.039062 L 6.324219 -4.207031 L 13.566406 -4.207031 L 13.566406 0 L 1.53125 0 L 1.53125 -21.039062 Z M 6.324219 -21.039062 "/></g></g></g><g fill="#ffffff" fill-opacity="1"><g transform="translate(56.868829, 30.410118)"><g><path d="M 8.492188 -24.890625 L 13.667969 -29.375 L 15.988281 -26.445312 L 9.917969 -22.925781 Z M 12.214844 -21.039062 L 20.707031 0 L 15.554688 0 L 14 -4.207031 L 5.992188 -4.207031 L 4.4375 0 L -0.714844 0 L 7.777344 -21.039062 Z M 12.367188 -8.414062 L 10.023438 -14.535156 L 9.972656 -14.535156 L 7.625 -8.414062 Z M 12.367188 -8.414062 "/></g></g></g><g fill="#ffffff" fill-opacity="1"><g transform="translate(76.857058, 30.410118)"><g><path d="M 2.804688 -6.886719 L 2.191406 -21.929688 L 6.707031 -21.929688 L 6.09375 -6.886719 Z M 4.4375 -5.457031 C 5.253906 -5.457031 5.945312 -5.171875 6.515625 -4.601562 C 7.085938 -4.035156 7.371094 -3.339844 7.371094 -2.523438 C 7.371094 -1.726562 7.085938 -1.042969 6.515625 -0.472656 C 5.945312 0.0976562 5.253906 0.382812 4.4375 0.382812 C 3.636719 0.382812 2.953125 0.0976562 2.382812 -0.472656 C 1.816406 -1.042969 1.53125 -1.726562 1.53125 -2.523438 C 1.53125 -3.339844 1.816406 -4.035156 2.382812 -4.601562 C 2.953125 -5.171875 3.636719 -5.457031 4.4375 -5.457031 Z M 4.4375 -5.457031 "/></g></g></g><g fill="#ffffff" fill-opacity="1"><g transform="translate(85.754872, 30.410118)"><g/></g></g><g fill="#ffffff" fill-opacity="1"><g transform="translate(92.71505, 30.410118)"><g><path d="M 18.921875 0 L 17.925781 -12.46875 L 17.800781 -12.46875 L 13.488281 -0.128906 L 10.632812 -0.128906 L 6.324219 -12.46875 L 6.195312 -12.46875 L 5.203125 0 L 0.40625 0 L 2.296875 -21.039062 L 7.394531 -21.039062 L 12.0625 -8.898438 L 16.730469 -21.039062 L 21.828125 -21.039062 L 23.714844 0 Z M 18.921875 0 "/></g></g></g><g fill="#ffffff" fill-opacity="1"><g transform="translate(116.833487, 30.410118)"><g><path d="M 13.566406 -21.039062 L 13.566406 -16.832031 L 6.324219 -16.832031 L 6.324219 -12.648438 L 13.261719 -12.648438 L 13.261719 -8.441406 L 6.324219 -8.441406 L 6.324219 -4.207031 L 13.566406 -4.207031 L 13.566406 0 L 1.53125 0 L 1.53125 -21.039062 Z M 13.566406 -21.039062 "/></g></g></g><g fill="#ffffff" fill-opacity="1"><g transform="translate(131.620697, 30.410118)"><g><path d="M 17.699219 -21.039062 L 17.699219 -7.472656 C 17.699219 -4.886719 17 -2.933594 15.605469 -1.605469 C 14.210938 -0.28125 12.171875 0.382812 9.484375 0.382812 C 6.800781 0.382812 4.761719 -0.28125 3.367188 -1.605469 C 1.972656 -2.933594 1.273438 -4.886719 1.273438 -7.472656 L 1.273438 -21.039062 L 6.070312 -21.039062 L 6.070312 -8.875 C 6.070312 -7.175781 6.335938 -5.992188 6.871094 -5.328125 C 7.40625 -4.667969 8.277344 -4.335938 9.484375 -4.335938 C 10.691406 -4.335938 11.566406 -4.667969 12.101562 -5.328125 C 12.636719 -5.992188 12.902344 -7.175781 12.902344 -8.875 L 12.902344 -21.039062 Z M 17.699219 -21.039062 "/></g></g></g><g fill="#ffffff" fill-opacity="1"><g transform="translate(150.589108, 30.410118)"><g/></g></g><g fill="#ffffff" fill-opacity="1"><g transform="translate(157.549286, 30.410118)"><g><path d="M 6.324219 -13.054688 L 6.324219 0 L 1.53125 0 L 1.53125 -21.039062 L 6.324219 -21.039062 L 14.6875 -7.980469 L 14.738281 -7.980469 L 14.738281 -21.039062 L 19.535156 -21.039062 L 19.535156 0 L 14.738281 0 L 6.375 -13.054688 Z M 6.324219 -13.054688 "/></g></g></g><g fill="#ffffff" fill-opacity="1"><g transform="translate(178.608312, 30.410118)"><g><path d="M 0.585938 -10.53125 C 0.585938 -13.574219 1.625 -16.152344 3.699219 -18.257812 C 5.773438 -20.367188 8.269531 -21.421875 11.195312 -21.421875 C 14.136719 -21.421875 16.636719 -20.371094 18.691406 -18.269531 C 20.75 -16.171875 21.777344 -13.59375 21.777344 -10.53125 C 21.777344 -7.453125 20.765625 -4.867188 18.742188 -2.765625 C 16.71875 -0.667969 14.203125 0.382812 11.195312 0.382812 C 8.117188 0.382812 5.582031 -0.660156 3.582031 -2.742188 C 1.585938 -4.824219 0.585938 -7.421875 0.585938 -10.53125 Z M 5.761719 -10.53125 C 5.761719 -9.425781 5.933594 -8.417969 6.273438 -7.511719 C 6.613281 -6.601562 7.207031 -5.832031 8.058594 -5.203125 C 8.910156 -4.574219 9.953125 -4.257812 11.195312 -4.257812 C 12.980469 -4.257812 14.328125 -4.871094 15.238281 -6.09375 C 16.144531 -7.320312 16.601562 -8.796875 16.601562 -10.53125 C 16.601562 -12.25 16.136719 -13.722656 15.210938 -14.957031 C 14.285156 -16.1875 12.945312 -16.804688 11.195312 -16.804688 C 9.460938 -16.804688 8.121094 -16.1875 7.179688 -14.957031 C 6.234375 -13.722656 5.761719 -12.25 5.761719 -10.53125 Z M 5.761719 -10.53125 "/></g></g></g><g fill="#ffffff" fill-opacity="1"><g transform="translate(200.967588, 30.410118)"><g><path d="M 18.921875 0 L 17.925781 -12.46875 L 17.800781 -12.46875 L 13.488281 -0.128906 L 10.632812 -0.128906 L 6.324219 -12.46875 L 6.195312 -12.46875 L 5.203125 0 L 0.40625 0 L 2.296875 -21.039062 L 7.394531 -21.039062 L 12.0625 -8.898438 L 16.730469 -21.039062 L 21.828125 -21.039062 L 23.714844 0 Z M 18.921875 0 "/></g></g></g><g fill="#ffffff" fill-opacity="1"><g transform="translate(225.086024, 30.410118)"><g><path d="M 13.566406 -21.039062 L 13.566406 -16.832031 L 6.324219 -16.832031 L 6.324219 -12.648438 L 13.261719 -12.648438 L 13.261719 -8.441406 L 6.324219 -8.441406 L 6.324219 -4.207031 L 13.566406 -4.207031 L 13.566406 0 L 1.53125 0 L 1.53125 -21.039062 Z M 13.566406 -21.039062 "/></g></g></g><g fill="#ffffff" fill-opacity="1"><g transform="translate(239.873235, 30.410118)"><g/></g></g><g fill="#ffffff" fill-opacity="1"><g transform="translate(246.833413, 30.410118)"><g><path d="M 4.386719 -24.890625 L 9.5625 -29.375 L 11.882812 -26.445312 L 5.8125 -22.925781 Z M 13.566406 -21.039062 L 13.566406 -16.832031 L 6.324219 -16.832031 L 6.324219 -12.648438 L 13.261719 -12.648438 L 13.261719 -8.441406 L 6.324219 -8.441406 L 6.324219 -4.207031 L 13.566406 -4.207031 L 13.566406 0 L 1.53125 0 L 1.53125 -21.039062 Z M 13.566406 -21.039062 "/></g></g></g><g fill="#ff98d9" fill-opacity="1"><g transform="translate(17.258167, 97.261892)"><g><path d="M 0.988281 0 C 2.046875 -2.871094 2.871094 -5.964844 3.464844 -9.28125 C 4.058594 -12.597656 4.355469 -15.953125 4.355469 -19.355469 C 4.355469 -22.421875 4.082031 -25.484375 3.539062 -28.535156 C 2.996094 -31.589844 2.144531 -34.515625 0.988281 -37.320312 C 1.75 -37.421875 2.738281 -37.519531 3.960938 -37.617188 C 5.179688 -37.71875 6.441406 -37.792969 7.746094 -37.839844 C 9.050781 -37.890625 10.214844 -37.914062 11.234375 -37.914062 C 13.511719 -37.914062 15.75 -37.785156 17.941406 -37.519531 C 20.136719 -37.253906 22.132812 -36.792969 23.933594 -36.132812 C 25.730469 -35.472656 27.167969 -34.542969 28.238281 -33.335938 C 29.3125 -32.132812 29.847656 -30.589844 29.847656 -28.707031 C 29.847656 -27.554688 29.550781 -26.539062 28.957031 -25.664062 C 28.363281 -24.789062 27.628906 -24.046875 26.753906 -23.4375 C 25.878906 -22.828125 25.011719 -22.332031 24.15625 -21.953125 C 23.296875 -21.574219 22.585938 -21.300781 22.027344 -21.136719 C 21.894531 -21.101562 21.828125 -20.96875 21.828125 -20.738281 C 21.828125 -20.542969 21.910156 -20.441406 22.074219 -20.441406 C 24.121094 -20.574219 25.894531 -20.300781 27.398438 -19.625 C 28.898438 -18.949219 30.0625 -18 30.886719 -16.78125 C 31.710938 -15.558594 32.125 -14.222656 32.125 -12.769531 C 32.125 -9.703125 31.242188 -7.175781 29.476562 -5.199219 C 27.710938 -3.21875 25.328125 -1.757812 22.324219 -0.816406 C 19.320312 0.125 15.921875 0.59375 12.128906 0.59375 C 11.105469 0.59375 9.90625 0.5625 8.539062 0.496094 C 7.167969 0.429688 5.816406 0.347656 4.480469 0.246094 C 3.144531 0.148438 1.980469 0.0664062 0.988281 0 Z M 22.074219 -28.558594 C 21.351562 -28.558594 20.460938 -28.347656 19.402344 -27.917969 C 18.347656 -27.488281 17.234375 -26.925781 16.0625 -26.234375 C 14.890625 -25.539062 13.800781 -24.765625 12.796875 -23.90625 C 11.789062 -23.050781 10.964844 -22.191406 10.320312 -21.332031 C 9.675781 -20.476562 9.355469 -19.683594 9.355469 -18.957031 C 9.355469 -17.96875 9.980469 -17.472656 11.234375 -17.472656 C 11.960938 -17.472656 12.859375 -17.6875 13.933594 -18.117188 C 15.007812 -18.546875 16.121094 -19.105469 17.273438 -19.800781 C 18.429688 -20.492188 19.519531 -21.269531 20.542969 -22.125 C 21.566406 -22.984375 22.398438 -23.839844 23.042969 -24.699219 C 23.683594 -25.558594 24.007812 -26.347656 24.007812 -27.074219 C 24.007812 -28.066406 23.363281 -28.558594 22.074219 -28.558594 Z M 22.222656 -17.867188 C 21.464844 -17.867188 20.507812 -17.636719 19.355469 -17.175781 C 18.199219 -16.714844 16.996094 -16.113281 15.742188 -15.367188 C 14.488281 -14.625 13.308594 -13.792969 12.203125 -12.871094 C 11.097656 -11.945312 10.195312 -11.023438 9.503906 -10.097656 C 8.8125 -9.171875 8.464844 -8.316406 8.464844 -7.523438 C 8.464844 -6.433594 9.140625 -5.890625 10.492188 -5.890625 C 11.285156 -5.890625 12.257812 -6.121094 13.414062 -6.582031 C 14.570312 -7.046875 15.773438 -7.65625 17.027344 -8.414062 C 18.28125 -9.171875 19.460938 -10.007812 20.566406 -10.914062 C 21.671875 -11.820312 22.570312 -12.746094 23.265625 -13.6875 C 23.957031 -14.625 24.304688 -15.492188 24.304688 -16.285156 C 24.304688 -17.339844 23.609375 -17.867188 22.222656 -17.867188 Z M 22.222656 -17.867188 "/></g></g></g><g fill="#ff98d9" fill-opacity="1"><g transform="translate(49.918999, 97.261892)"><g><path d="M 0.988281 0 C 2.046875 -2.871094 2.871094 -5.964844 3.464844 -9.28125 C 4.058594 -12.597656 4.355469 -15.953125 4.355469 -19.355469 C 4.355469 -22.421875 4.082031 -25.484375 3.539062 -28.535156 C 2.996094 -31.589844 2.144531 -34.515625 0.988281 -37.320312 L 28.113281 -37.320312 L 28.113281 -24.648438 C 27.75 -24.816406 27.058594 -25.113281 26.035156 -25.539062 C 25.011719 -25.96875 23.808594 -26.433594 22.421875 -26.925781 C 21.035156 -27.421875 19.617188 -27.851562 18.164062 -28.214844 C 16.714844 -28.578125 15.378906 -28.757812 14.15625 -28.757812 C 13.167969 -28.757812 12.324219 -28.410156 11.632812 -27.71875 C 10.9375 -27.027344 10.371094 -26.160156 9.925781 -25.121094 C 9.480469 -24.082031 9.15625 -23.015625 8.960938 -21.925781 C 8.761719 -20.839844 8.664062 -19.898438 8.664062 -19.105469 C 8.664062 -18.480469 8.769531 -18.042969 8.984375 -17.792969 C 9.199219 -17.546875 9.519531 -17.421875 9.949219 -17.421875 C 10.511719 -17.421875 11.195312 -17.597656 12.003906 -17.941406 C 12.8125 -18.289062 13.71875 -18.695312 14.726562 -19.15625 C 15.730469 -19.617188 16.78125 -20.023438 17.867188 -20.367188 C 18.957031 -20.714844 20.03125 -20.886719 21.085938 -20.886719 C 21.25 -20.886719 21.433594 -20.878906 21.628906 -20.863281 C 21.828125 -20.847656 22.027344 -20.820312 22.222656 -20.789062 L 22.222656 -13.859375 C 19.78125 -14.617188 17.5625 -15.230469 15.566406 -15.691406 C 13.570312 -16.152344 11.699219 -16.382812 9.949219 -16.382812 C 9.421875 -15.757812 8.910156 -15.0625 8.414062 -14.304688 C 7.917969 -13.546875 7.507812 -12.820312 7.175781 -12.128906 C 6.847656 -11.433594 6.683594 -10.839844 6.683594 -10.34375 C 6.683594 -9.917969 6.878906 -9.570312 7.277344 -9.304688 C 7.671875 -9.042969 8.160156 -8.84375 8.738281 -8.710938 C 9.3125 -8.578125 9.867188 -8.496094 10.394531 -8.464844 C 10.921875 -8.429688 11.335938 -8.414062 11.632812 -8.414062 C 12.984375 -8.414062 14.617188 -8.554688 16.53125 -8.835938 C 18.445312 -9.117188 20.425781 -9.519531 22.472656 -10.046875 C 24.519531 -10.574219 26.398438 -11.203125 28.113281 -11.929688 L 28.113281 0 Z M 0.988281 0 "/></g></g></g><g fill="#ff98d9" fill-opacity="1"><g transform="translate(78.868371, 97.261892)"><g><path d="M -0.742188 0 C -0.0507812 -1.847656 0.71875 -3.792969 1.558594 -5.839844 C 2.402344 -7.886719 3.234375 -10.007812 4.058594 -12.203125 C 4.882812 -14.394531 5.578125 -16.597656 6.136719 -18.808594 C 6.730469 -21.183594 7.027344 -23.628906 7.027344 -26.136719 C 7.027344 -28.378906 6.796875 -30.492188 6.335938 -32.46875 C 5.875 -34.449219 5.214844 -36.066406 4.355469 -37.320312 L 25.9375 -37.320312 C 25.9375 -32.4375 26.175781 -27.84375 26.65625 -23.535156 C 27.132812 -19.230469 27.949219 -15.128906 29.105469 -11.234375 C 30.257812 -7.34375 31.875 -3.597656 33.957031 0 L 16.878906 0 C 15.855469 -1.648438 15.128906 -3.21875 14.699219 -4.703125 C 14.273438 -6.1875 14.058594 -7.589844 14.058594 -8.910156 C 14.058594 -10.855469 14.429688 -12.628906 15.171875 -14.230469 C 15.914062 -15.832031 16.828125 -17.292969 17.917969 -18.609375 C 19.007812 -19.929688 20.089844 -21.117188 21.160156 -22.175781 C 22.234375 -23.230469 23.140625 -24.171875 23.882812 -24.996094 C 24.625 -25.820312 24.996094 -26.5625 24.996094 -27.222656 C 24.996094 -27.785156 24.773438 -28.148438 24.328125 -28.3125 C 23.882812 -28.476562 23.429688 -28.558594 22.96875 -28.558594 C 22.074219 -28.558594 20.980469 -28.363281 19.675781 -27.964844 C 18.371094 -27.570312 17.019531 -26.960938 15.617188 -26.136719 C 14.214844 -25.308594 12.902344 -24.277344 11.679688 -23.042969 C 10.460938 -21.804688 9.46875 -20.335938 8.710938 -18.636719 C 7.953125 -16.9375 7.574219 -14.996094 7.574219 -12.820312 C 7.574219 -11.003906 7.910156 -9.035156 8.585938 -6.90625 C 9.265625 -4.777344 10.363281 -2.476562 11.878906 0 Z M -0.742188 0 "/></g></g></g><g fill="#ff98d9" fill-opacity="1"><g transform="translate(112.073554, 97.261892)"><g><path d="M 8.066406 0 C 7.375 -1.351562 6.886719 -2.65625 6.609375 -3.910156 C 6.328125 -5.164062 6.1875 -6.386719 6.1875 -7.574219 C 6.1875 -9.652344 6.527344 -11.597656 7.203125 -13.414062 C 7.878906 -15.230469 8.652344 -16.902344 9.527344 -18.4375 C 10.402344 -19.972656 11.179688 -21.359375 11.855469 -22.597656 C 12.53125 -23.832031 12.871094 -24.898438 12.871094 -25.789062 C 12.871094 -26.644531 12.53125 -27.289062 11.855469 -27.71875 C 11.179688 -28.148438 10.445312 -28.363281 9.652344 -28.363281 C 8.628906 -28.363281 7.515625 -28.140625 6.3125 -27.695312 C 5.105469 -27.25 3.96875 -26.753906 2.894531 -26.210938 C 1.824219 -25.664062 0.941406 -25.242188 0.246094 -24.945312 L 0.246094 -37.320312 L 28.410156 -37.320312 L 28.410156 -24.945312 C 28.148438 -25.144531 27.703125 -25.449219 27.074219 -25.863281 C 26.449219 -26.273438 25.707031 -26.6875 24.847656 -27.101562 C 23.988281 -27.511719 23.097656 -27.867188 22.175781 -28.164062 C 21.25 -28.460938 20.359375 -28.609375 19.503906 -28.609375 C 18.414062 -28.609375 17.5625 -28.378906 16.953125 -27.917969 C 16.34375 -27.453125 15.890625 -26.851562 15.59375 -26.109375 C 15.292969 -25.367188 15.113281 -24.566406 15.046875 -23.710938 C 14.980469 -22.851562 14.949219 -22.027344 14.949219 -21.234375 C 14.949219 -18.695312 15.304688 -16.210938 16.011719 -13.785156 C 16.722656 -11.359375 17.671875 -9 18.859375 -6.707031 C 20.046875 -4.414062 21.316406 -2.179688 22.671875 0 Z M 8.066406 0 "/></g></g></g><g fill="#ff98d9" fill-opacity="1"><g transform="translate(140.726016, 97.261892)"><g><path d="M 0.988281 0 C 2.046875 -2.871094 2.871094 -5.964844 3.464844 -9.28125 C 4.058594 -12.597656 4.355469 -15.953125 4.355469 -19.355469 C 4.355469 -22.421875 4.082031 -25.484375 3.539062 -28.535156 C 2.996094 -31.589844 2.144531 -34.515625 0.988281 -37.320312 C 1.816406 -37.453125 2.796875 -37.5625 3.933594 -37.644531 C 5.074219 -37.726562 6.261719 -37.792969 7.5 -37.839844 C 8.738281 -37.890625 9.867188 -37.914062 10.890625 -37.914062 C 13.199219 -37.914062 15.46875 -37.765625 17.695312 -37.46875 C 19.921875 -37.171875 21.9375 -36.660156 23.734375 -35.933594 C 25.53125 -35.210938 26.96875 -34.1875 28.039062 -32.867188 C 29.113281 -31.546875 29.648438 -29.847656 29.648438 -27.769531 C 29.648438 -25.855469 29.136719 -24.097656 28.113281 -22.496094 C 27.09375 -20.894531 25.582031 -19.566406 23.585938 -18.511719 C 21.589844 -17.457031 19.089844 -16.796875 16.085938 -16.53125 C 16.449219 -15.378906 17.152344 -14.476562 18.191406 -13.835938 C 19.230469 -13.191406 20.441406 -12.746094 21.828125 -12.5 C 23.214844 -12.25 24.601562 -12.128906 25.988281 -12.128906 C 26.644531 -12.128906 27.28125 -12.152344 27.890625 -12.203125 C 28.503906 -12.25 29.070312 -12.292969 29.601562 -12.324219 L 29.601562 0 C 28.378906 0.328125 27.242188 0.496094 26.183594 0.496094 C 24.535156 0.496094 23.15625 0.125 22.050781 -0.617188 C 20.945312 -1.359375 19.996094 -2.308594 19.207031 -3.464844 C 18.414062 -4.621094 17.6875 -5.847656 17.027344 -7.152344 C 16.367188 -8.457031 15.65625 -9.683594 14.898438 -10.839844 C 14.140625 -11.996094 13.222656 -12.945312 12.152344 -13.6875 C 11.078125 -14.429688 9.75 -14.800781 8.167969 -14.800781 C 8.167969 -11.765625 8.570312 -9.015625 9.378906 -6.558594 C 10.1875 -4.101562 11.449219 -1.914062 13.167969 0 Z M 23.117188 -28.558594 C 22.390625 -28.558594 21.492188 -28.347656 20.417969 -27.917969 C 19.34375 -27.488281 18.230469 -26.925781 17.078125 -26.234375 C 15.921875 -25.539062 14.832031 -24.765625 13.808594 -23.90625 C 12.785156 -23.050781 11.953125 -22.191406 11.308594 -21.332031 C 10.667969 -20.476562 10.34375 -19.683594 10.34375 -18.957031 C 10.34375 -17.96875 10.988281 -17.472656 12.277344 -17.472656 C 13 -17.472656 13.890625 -17.6875 14.949219 -18.117188 C 16.003906 -18.546875 17.117188 -19.105469 18.289062 -19.800781 C 19.460938 -20.492188 20.550781 -21.269531 21.554688 -22.125 C 22.5625 -22.984375 23.386719 -23.839844 24.03125 -24.699219 C 24.675781 -25.558594 24.996094 -26.347656 24.996094 -27.074219 C 24.996094 -28.066406 24.371094 -28.558594 23.117188 -28.558594 Z M 23.117188 -28.558594 "/></g></g></g><g fill="#ff98d9" fill-opacity="1"><g transform="translate(171.209463, 97.261892)"><g><path d="M 1.039062 0 C 2.09375 -2.871094 2.914062 -5.964844 3.488281 -9.28125 C 4.066406 -12.597656 4.355469 -15.953125 4.355469 -19.355469 C 4.355469 -22.421875 4.09375 -25.484375 3.5625 -28.535156 C 3.035156 -31.589844 2.195312 -34.515625 1.039062 -37.320312 L 12.226562 -37.320312 C 11.203125 -34.449219 10.386719 -31.363281 9.777344 -28.066406 C 9.164062 -24.765625 8.859375 -21.398438 8.859375 -17.96875 C 8.859375 -14.898438 9.132812 -11.839844 9.675781 -8.785156 C 10.222656 -5.734375 11.070312 -2.804688 12.226562 0 Z M 1.039062 0 "/></g></g></g><g fill="#ff98d9" fill-opacity="1"><g transform="translate(184.422256, 97.261892)"><g><path d="M 14.800781 0.59375 C 13.710938 0.59375 12.539062 0.527344 11.285156 0.394531 C 10.03125 0.265625 8.792969 0 7.574219 -0.394531 C 6.351562 -0.792969 5.238281 -1.386719 4.230469 -2.179688 C 3.226562 -2.96875 2.425781 -4.019531 1.832031 -5.320312 C 1.238281 -6.625 0.941406 -8.25 0.941406 -10.195312 C 0.941406 -12.574219 1.816406 -14.5625 3.5625 -16.160156 C 5.3125 -17.761719 7.6875 -19.058594 10.691406 -20.046875 C 12.671875 -20.707031 14.585938 -21.285156 16.433594 -21.777344 C 18.28125 -22.273438 19.9375 -22.769531 21.40625 -23.265625 C 22.875 -23.757812 24.039062 -24.285156 24.898438 -24.847656 C 25.753906 -25.410156 26.183594 -26.070312 26.183594 -26.828125 C 26.183594 -27.390625 25.839844 -27.859375 25.144531 -28.238281 C 24.453125 -28.617188 23.554688 -28.898438 22.449219 -29.078125 C 21.34375 -29.261719 20.164062 -29.351562 18.90625 -29.351562 C 17.292969 -29.351562 15.5 -29.195312 13.539062 -28.882812 C 11.574219 -28.570312 9.585938 -28.125 7.574219 -27.546875 C 5.558594 -26.96875 3.664062 -26.265625 1.882812 -25.441406 L 1.882812 -37.320312 C 2.476562 -37.355469 3.382812 -37.421875 4.601562 -37.519531 C 5.824219 -37.617188 7.210938 -37.710938 8.761719 -37.792969 C 10.3125 -37.875 11.878906 -37.914062 13.464844 -37.914062 C 15.3125 -37.914062 17.078125 -37.800781 18.757812 -37.570312 C 20.441406 -37.339844 21.945312 -36.917969 23.265625 -36.308594 C 24.582031 -35.695312 25.625 -34.8125 26.382812 -33.660156 C 27.140625 -32.503906 27.519531 -31.003906 27.519531 -29.152344 C 27.519531 -27.109375 27.117188 -25.285156 26.308594 -23.683594 C 25.5 -22.085938 24.425781 -20.691406 23.089844 -19.503906 C 21.753906 -18.3125 20.269531 -17.28125 18.636719 -16.410156 C 17.003906 -15.535156 15.359375 -14.800781 13.710938 -14.207031 C 11.402344 -13.382812 9.496094 -12.761719 7.992188 -12.351562 C 6.492188 -11.9375 5.320312 -11.632812 4.480469 -11.433594 C 3.636719 -11.234375 3.050781 -11.046875 2.722656 -10.863281 C 2.390625 -10.683594 2.226562 -10.394531 2.226562 -10 C 2.226562 -9.140625 2.828125 -8.523438 4.035156 -8.140625 C 5.238281 -7.761719 6.664062 -7.574219 8.316406 -7.574219 C 9.898438 -7.574219 11.671875 -7.695312 13.636719 -7.945312 C 15.601562 -8.191406 17.546875 -8.523438 19.476562 -8.933594 C 21.40625 -9.347656 23.140625 -9.800781 24.675781 -10.296875 C 26.210938 -10.789062 27.339844 -11.300781 28.066406 -11.828125 L 28.066406 0 C 27.175781 0.0664062 26.136719 0.140625 24.945312 0.222656 C 23.757812 0.304688 22.53125 0.371094 21.257812 0.421875 C 19.988281 0.46875 18.785156 0.511719 17.644531 0.542969 C 16.507812 0.578125 15.558594 0.59375 14.800781 0.59375 Z M 14.800781 0.59375 "/></g></g></g><g fill="#ff98d9" fill-opacity="1"><g transform="translate(212.480878, 97.261892)"><g/></g></g><g fill="#ff98d9" fill-opacity="1"><g transform="translate(225.347274, 97.261892)"><g><path d="M 0.988281 0 C 2.046875 -2.871094 2.871094 -5.964844 3.464844 -9.28125 C 4.058594 -12.597656 4.355469 -15.953125 4.355469 -19.355469 C 4.355469 -22.421875 4.082031 -25.484375 3.539062 -28.535156 C 2.996094 -31.589844 2.144531 -34.515625 0.988281 -37.320312 C 2.738281 -37.519531 4.429688 -37.667969 6.0625 -37.765625 C 7.695312 -37.867188 9.371094 -37.914062 11.085938 -37.914062 C 12.539062 -37.914062 14.03125 -37.875 15.566406 -37.792969 C 17.101562 -37.710938 18.578125 -37.511719 19.996094 -37.199219 C 21.417969 -36.882812 22.679688 -36.382812 23.785156 -35.6875 C 24.890625 -34.996094 25.746094 -34.039062 26.359375 -32.816406 C 26.96875 -31.597656 27.222656 -30.027344 27.125 -28.113281 L 28.3125 -28.113281 C 28.839844 -30.09375 29.789062 -31.820312 31.160156 -33.289062 C 32.527344 -34.753906 34.144531 -35.894531 36.007812 -36.703125 C 37.875 -37.511719 39.8125 -37.914062 41.824219 -37.914062 C 42.949219 -37.914062 44.109375 -37.859375 45.316406 -37.742188 C 46.519531 -37.625 47.535156 -37.488281 48.359375 -37.320312 C 47.335938 -34.449219 46.519531 -31.363281 45.910156 -28.066406 C 45.300781 -24.765625 44.992188 -21.398438 44.992188 -17.96875 C 44.992188 -14.898438 45.265625 -11.839844 45.808594 -8.785156 C 46.355469 -5.734375 47.203125 -2.804688 48.359375 0 L 34.300781 0 C 33.277344 -1.648438 32.554688 -3.21875 32.125 -4.703125 C 31.695312 -6.1875 31.480469 -7.589844 31.480469 -8.910156 C 31.480469 -10.855469 31.851562 -12.628906 32.59375 -14.230469 C 33.335938 -15.832031 34.253906 -17.292969 35.339844 -18.609375 C 36.429688 -19.929688 37.511719 -21.117188 38.582031 -22.175781 C 39.65625 -23.230469 40.5625 -24.171875 41.304688 -24.996094 C 42.046875 -25.820312 42.417969 -26.5625 42.417969 -27.222656 C 42.417969 -27.785156 42.195312 -28.148438 41.75 -28.3125 C 41.304688 -28.476562 40.851562 -28.558594 40.390625 -28.558594 C 39.5 -28.558594 38.402344 -28.363281 37.097656 -27.964844 C 35.796875 -27.570312 34.449219 -26.960938 33.066406 -26.136719 C 31.679688 -25.308594 30.375 -24.277344 29.152344 -23.042969 C 27.933594 -21.804688 26.945312 -20.335938 26.183594 -18.636719 C 25.425781 -16.9375 25.046875 -14.996094 25.046875 -12.820312 C 25.046875 -11.003906 25.375 -9.035156 26.035156 -6.90625 C 26.695312 -4.777344 27.785156 -2.476562 29.304688 0 L 16.878906 0 C 16.054688 -1.351562 15.378906 -2.78125 14.847656 -4.28125 C 14.320312 -5.78125 14.058594 -7.324219 14.058594 -8.910156 C 14.058594 -10.855469 14.429688 -12.628906 15.171875 -14.230469 C 15.914062 -15.832031 16.828125 -17.292969 17.917969 -18.609375 C 19.007812 -19.929688 20.089844 -21.117188 21.160156 -22.175781 C 22.234375 -23.230469 23.140625 -24.171875 23.882812 -24.996094 C 24.625 -25.820312 24.996094 -26.5625 24.996094 -27.222656 C 24.996094 -27.785156 24.773438 -28.148438 24.328125 -28.3125 C 23.882812 -28.476562 23.429688 -28.558594 22.96875 -28.558594 C 22.074219 -28.558594 20.980469 -28.363281 19.675781 -27.964844 C 18.371094 -27.570312 17.019531 -26.960938 15.617188 -26.136719 C 14.214844 -25.308594 12.902344 -24.277344 11.679688 -23.042969 C 10.460938 -21.804688 9.46875 -20.335938 8.710938 -18.636719 C 7.953125 -16.9375 7.574219 -14.996094 7.574219 -12.820312 C 7.574219 -11.003906 7.910156 -9.035156 8.585938 -6.90625 C 9.265625 -4.777344 10.363281 -2.476562 11.878906 0 Z M 0.988281 0 "/></g></g></g><g fill="#ff98d9" fill-opacity="1"><g transform="translate(274.73441, 97.261892)"><g><path d="M -0.742188 0 C -0.0507812 -1.847656 0.71875 -3.792969 1.558594 -5.839844 C 2.402344 -7.886719 3.234375 -10.007812 4.058594 -12.203125 C 4.882812 -14.394531 5.578125 -16.597656 6.136719 -18.808594 C 6.730469 -21.183594 7.027344 -23.628906 7.027344 -26.136719 C 7.027344 -28.378906 6.796875 -30.492188 6.335938 -32.46875 C 5.875 -34.449219 5.214844 -36.066406 4.355469 -37.320312 L 25.9375 -37.320312 C 25.9375 -32.4375 26.175781 -27.84375 26.65625 -23.535156 C 27.132812 -19.230469 27.949219 -15.128906 29.105469 -11.234375 C 30.257812 -7.34375 31.875 -3.597656 33.957031 0 L 16.878906 0 C 15.855469 -1.648438 15.128906 -3.21875 14.699219 -4.703125 C 14.273438 -6.1875 14.058594 -7.589844 14.058594 -8.910156 C 14.058594 -10.855469 14.429688 -12.628906 15.171875 -14.230469 C 15.914062 -15.832031 16.828125 -17.292969 17.917969 -18.609375 C 19.007812 -19.929688 20.089844 -21.117188 21.160156 -22.175781 C 22.234375 -23.230469 23.140625 -24.171875 23.882812 -24.996094 C 24.625 -25.820312 24.996094 -26.5625 24.996094 -27.222656 C 24.996094 -27.785156 24.773438 -28.148438 24.328125 -28.3125 C 23.882812 -28.476562 23.429688 -28.558594 22.96875 -28.558594 C 22.074219 -28.558594 20.980469 -28.363281 19.675781 -27.964844 C 18.371094 -27.570312 17.019531 -26.960938 15.617188 -26.136719 C 14.214844 -25.308594 12.902344 -24.277344 11.679688 -23.042969 C 10.460938 -21.804688 9.46875 -20.335938 8.710938 -18.636719 C 7.953125 -16.9375 7.574219 -14.996094 7.574219 -12.820312 C 7.574219 -11.003906 7.910156 -9.035156 8.585938 -6.90625 C 9.265625 -4.777344 10.363281 -2.476562 11.878906 0 Z M -0.742188 0 "/></g></g></g><g fill="#ff98d9" fill-opacity="1"><g transform="translate(307.939593, 97.261892)"><g><path d="M 0.988281 0 C 2.046875 -2.871094 2.871094 -5.964844 3.464844 -9.28125 C 4.058594 -12.597656 4.355469 -15.953125 4.355469 -19.355469 C 4.355469 -22.421875 4.082031 -25.484375 3.539062 -28.535156 C 2.996094 -31.589844 2.144531 -34.515625 0.988281 -37.320312 C 1.816406 -37.453125 2.796875 -37.5625 3.933594 -37.644531 C 5.074219 -37.726562 6.261719 -37.792969 7.5 -37.839844 C 8.738281 -37.890625 9.867188 -37.914062 10.890625 -37.914062 C 13.199219 -37.914062 15.46875 -37.765625 17.695312 -37.46875 C 19.921875 -37.171875 21.9375 -36.660156 23.734375 -35.933594 C 25.53125 -35.210938 26.96875 -34.1875 28.039062 -32.867188 C 29.113281 -31.546875 29.648438 -29.847656 29.648438 -27.769531 C 29.648438 -25.855469 29.136719 -24.097656 28.113281 -22.496094 C 27.09375 -20.894531 25.582031 -19.566406 23.585938 -18.511719 C 21.589844 -17.457031 19.089844 -16.796875 16.085938 -16.53125 C 16.449219 -15.378906 17.152344 -14.476562 18.191406 -13.835938 C 19.230469 -13.191406 20.441406 -12.746094 21.828125 -12.5 C 23.214844 -12.25 24.601562 -12.128906 25.988281 -12.128906 C 26.644531 -12.128906 27.28125 -12.152344 27.890625 -12.203125 C 28.503906 -12.25 29.070312 -12.292969 29.601562 -12.324219 L 29.601562 0 C 28.378906 0.328125 27.242188 0.496094 26.183594 0.496094 C 24.535156 0.496094 23.15625 0.125 22.050781 -0.617188 C 20.945312 -1.359375 19.996094 -2.308594 19.207031 -3.464844 C 18.414062 -4.621094 17.6875 -5.847656 17.027344 -7.152344 C 16.367188 -8.457031 15.65625 -9.683594 14.898438 -10.839844 C 14.140625 -11.996094 13.222656 -12.945312 12.152344 -13.6875 C 11.078125 -14.429688 9.75 -14.800781 8.167969 -14.800781 C 8.167969 -11.765625 8.570312 -9.015625 9.378906 -6.558594 C 10.1875 -4.101562 11.449219 -1.914062 13.167969 0 Z M 23.117188 -28.558594 C 22.390625 -28.558594 21.492188 -28.347656 20.417969 -27.917969 C 19.34375 -27.488281 18.230469 -26.925781 17.078125 -26.234375 C 15.921875 -25.539062 14.832031 -24.765625 13.808594 -23.90625 C 12.785156 -23.050781 11.953125 -22.191406 11.308594 -21.332031 C 10.667969 -20.476562 10.34375 -19.683594 10.34375 -18.957031 C 10.34375 -17.96875 10.988281 -17.472656 12.277344 -17.472656 C 13 -17.472656 13.890625 -17.6875 14.949219 -18.117188 C 16.003906 -18.546875 17.117188 -19.105469 18.289062 -19.800781 C 19.460938 -20.492188 20.550781 -21.269531 21.554688 -22.125 C 22.5625 -22.984375 23.386719 -23.839844 24.03125 -24.699219 C 24.675781 -25.558594 24.996094 -26.347656 24.996094 -27.074219 C 24.996094 -28.066406 24.371094 -28.558594 23.117188 -28.558594 Z M 23.117188 -28.558594 "/></g></g></g><g fill="#ff98d9" fill-opacity="1"><g transform="translate(338.423058, 97.261892)"><g><path d="M 28.460938 12.375 C 25.625 12.375 22.851562 11.746094 20.144531 10.492188 C 17.441406 9.238281 14.921875 7.546875 12.597656 5.421875 C 10.269531 3.292969 8.214844 0.890625 6.433594 -1.78125 C 4.652344 -4.453125 3.265625 -7.242188 2.277344 -10.148438 C 1.285156 -13.050781 0.792969 -15.890625 0.792969 -18.660156 C 0.792969 -21.070312 1.121094 -23.414062 1.78125 -25.6875 C 2.441406 -27.964844 3.421875 -30.027344 4.726562 -31.875 C 6.03125 -33.722656 7.671875 -35.191406 9.652344 -36.28125 C 11.632812 -37.371094 13.941406 -37.914062 16.582031 -37.914062 C 19.222656 -37.914062 21.53125 -37.371094 23.511719 -36.28125 C 25.492188 -35.191406 27.140625 -33.734375 28.460938 -31.902344 C 29.78125 -30.070312 30.769531 -28.007812 31.429688 -25.714844 C 32.089844 -23.421875 32.421875 -21.070312 32.421875 -18.660156 C 32.421875 -16.25 32.089844 -13.910156 31.429688 -11.632812 C 30.769531 -9.355469 29.78125 -7.292969 28.460938 -5.445312 C 27.140625 -3.597656 25.492188 -2.128906 23.511719 -1.039062 C 21.53125 0.0507812 19.222656 0.59375 16.582031 0.59375 C 16.21875 0.59375 15.699219 0.5625 15.023438 0.496094 C 14.347656 0.429688 13.679688 0.328125 13.019531 0.199219 C 12.425781 0.824219 12.128906 1.386719 12.128906 1.882812 C 12.128906 2.375 12.425781 2.738281 13.019531 2.96875 C 13.613281 3.199219 14.386719 3.316406 15.34375 3.316406 C 16.53125 3.316406 17.894531 3.160156 19.429688 2.847656 C 20.960938 2.53125 22.53125 2.078125 24.128906 1.484375 C 25.730469 0.890625 27.175781 0.199219 28.460938 -0.59375 Z M 25.839844 -28.558594 C 24.78125 -28.558594 23.503906 -28.296875 22 -27.769531 C 20.5 -27.242188 18.925781 -26.523438 17.273438 -25.613281 C 15.625 -24.707031 14.007812 -23.675781 12.425781 -22.523438 C 10.839844 -21.367188 9.40625 -20.152344 8.117188 -18.882812 C 6.832031 -17.613281 5.800781 -16.351562 5.023438 -15.097656 C 4.25 -13.84375 3.859375 -12.671875 3.859375 -11.582031 C 3.859375 -10.558594 4.207031 -9.832031 4.898438 -9.40625 C 5.59375 -8.976562 6.402344 -8.761719 7.324219 -8.761719 C 8.414062 -8.761719 9.703125 -9.023438 11.1875 -9.554688 C 12.671875 -10.082031 14.238281 -10.796875 15.890625 -11.707031 C 17.539062 -12.613281 19.15625 -13.644531 20.738281 -14.800781 C 22.324219 -15.953125 23.765625 -17.167969 25.070312 -18.4375 C 26.375 -19.707031 27.414062 -20.980469 28.1875 -22.25 C 28.964844 -23.519531 29.351562 -24.699219 29.351562 -25.789062 C 29.351562 -26.8125 28.996094 -27.527344 28.289062 -27.941406 C 27.578125 -28.355469 26.761719 -28.558594 25.839844 -28.558594 Z M 25.839844 -28.558594 "/></g></g></g><g fill="#ff98d9" fill-opacity="1"><g transform="translate(371.232301, 97.261892)"><g><path d="M 32.867188 -37.320312 C 31.84375 -34.449219 31.027344 -31.363281 30.417969 -28.066406 C 29.804688 -24.765625 29.5 -21.398438 29.5 -17.96875 C 29.5 -14.898438 29.773438 -11.839844 30.316406 -8.785156 C 30.863281 -5.734375 31.710938 -2.804688 32.867188 0 L 20.691406 0 L 24.996094 -16.484375 L 23.90625 -16.484375 C 23.414062 -14.171875 22.652344 -11.988281 21.628906 -9.925781 C 20.609375 -7.863281 19.378906 -6.046875 17.941406 -4.480469 C 16.507812 -2.914062 14.875 -1.675781 13.042969 -0.765625 C 11.210938 0.140625 9.222656 0.59375 7.078125 0.59375 C 5.394531 0.59375 4.265625 0.265625 3.6875 -0.394531 C 3.109375 -1.054688 2.820312 -2.046875 2.820312 -3.367188 C 2.820312 -4.453125 2.945312 -5.757812 3.191406 -7.277344 C 3.441406 -8.792969 3.679688 -10.535156 3.910156 -12.5 C 4.140625 -14.460938 4.257812 -16.613281 4.257812 -18.957031 C 4.257812 -21.566406 4.019531 -24.394531 3.539062 -27.445312 C 3.0625 -30.5 2.160156 -33.789062 0.839844 -37.320312 L 13.808594 -37.320312 C 14.371094 -36.199219 14.785156 -35.09375 15.046875 -34.003906 C 15.3125 -32.917969 15.441406 -31.84375 15.441406 -30.789062 C 15.441406 -28.875 15.121094 -27.050781 14.476562 -25.316406 C 13.835938 -23.585938 13.035156 -21.953125 12.078125 -20.417969 C 11.121094 -18.882812 10.15625 -17.457031 9.183594 -16.136719 C 8.207031 -14.816406 7.398438 -13.636719 6.757812 -12.597656 C 6.113281 -11.558594 5.792969 -10.660156 5.792969 -9.898438 C 5.792969 -9.371094 5.929688 -9 6.210938 -8.785156 C 6.492188 -8.570312 6.898438 -8.464844 7.425781 -8.464844 C 8.316406 -8.464844 9.503906 -8.71875 10.988281 -9.230469 C 12.472656 -9.742188 14.050781 -10.484375 15.714844 -11.457031 C 17.382812 -12.433594 18.957031 -13.621094 20.441406 -15.023438 C 21.925781 -16.425781 23.140625 -18.027344 24.082031 -19.824219 C 25.019531 -21.621094 25.492188 -23.609375 25.492188 -25.789062 C 25.492188 -27.503906 25.128906 -29.328125 24.402344 -31.257812 C 23.675781 -33.1875 22.4375 -35.210938 20.691406 -37.320312 Z M 32.867188 -37.320312 "/></g></g></g><g fill="#ff98d9" fill-opacity="1"><g transform="translate(405.080811, 97.261892)"><g><path d="M 0.988281 0 C 2.046875 -2.871094 2.871094 -5.964844 3.464844 -9.28125 C 4.058594 -12.597656 4.355469 -15.953125 4.355469 -19.355469 C 4.355469 -22.421875 4.082031 -25.484375 3.539062 -28.535156 C 2.996094 -31.589844 2.144531 -34.515625 0.988281 -37.320312 L 28.113281 -37.320312 L 28.113281 -24.648438 C 27.75 -24.816406 27.058594 -25.113281 26.035156 -25.539062 C 25.011719 -25.96875 23.808594 -26.433594 22.421875 -26.925781 C 21.035156 -27.421875 19.617188 -27.851562 18.164062 -28.214844 C 16.714844 -28.578125 15.378906 -28.757812 14.15625 -28.757812 C 13.167969 -28.757812 12.324219 -28.410156 11.632812 -27.71875 C 10.9375 -27.027344 10.371094 -26.160156 9.925781 -25.121094 C 9.480469 -24.082031 9.15625 -23.015625 8.960938 -21.925781 C 8.761719 -20.839844 8.664062 -19.898438 8.664062 -19.105469 C 8.664062 -18.480469 8.769531 -18.042969 8.984375 -17.792969 C 9.199219 -17.546875 9.519531 -17.421875 9.949219 -17.421875 C 10.511719 -17.421875 11.195312 -17.597656 12.003906 -17.941406 C 12.8125 -18.289062 13.71875 -18.695312 14.726562 -19.15625 C 15.730469 -19.617188 16.78125 -20.023438 17.867188 -20.367188 C 18.957031 -20.714844 20.03125 -20.886719 21.085938 -20.886719 C 21.25 -20.886719 21.433594 -20.878906 21.628906 -20.863281 C 21.828125 -20.847656 22.027344 -20.820312 22.222656 -20.789062 L 22.222656 -13.859375 C 19.78125 -14.617188 17.5625 -15.230469 15.566406 -15.691406 C 13.570312 -16.152344 11.699219 -16.382812 9.949219 -16.382812 C 9.421875 -15.757812 8.910156 -15.0625 8.414062 -14.304688 C 7.917969 -13.546875 7.507812 -12.820312 7.175781 -12.128906 C 6.847656 -11.433594 6.683594 -10.839844 6.683594 -10.34375 C 6.683594 -9.917969 6.878906 -9.570312 7.277344 -9.304688 C 7.671875 -9.042969 8.160156 -8.84375 8.738281 -8.710938 C 9.3125 -8.578125 9.867188 -8.496094 10.394531 -8.464844 C 10.921875 -8.429688 11.335938 -8.414062 11.632812 -8.414062 C 12.984375 -8.414062 14.617188 -8.554688 16.53125 -8.835938 C 18.445312 -9.117188 20.425781 -9.519531 22.472656 -10.046875 C 24.519531 -10.574219 26.398438 -11.203125 28.113281 -11.929688 L 28.113281 0 Z M 0.988281 0 "/></g></g></g><g fill="#ff98d9" fill-opacity="1"><g transform="translate(434.0302, 97.261892)"><g><path d="M 0.839844 0 L 0.839844 -12.277344 C 1.433594 -12.042969 2.464844 -11.722656 3.933594 -11.308594 C 5.402344 -10.898438 7.101562 -10.476562 9.035156 -10.046875 C 10.964844 -9.617188 12.933594 -9.257812 14.949219 -8.960938 C 16.960938 -8.664062 18.777344 -8.511719 20.394531 -8.511719 C 20.65625 -8.511719 21.070312 -8.53125 21.628906 -8.5625 C 22.191406 -8.597656 22.769531 -8.679688 23.363281 -8.8125 C 23.957031 -8.941406 24.460938 -9.140625 24.871094 -9.40625 C 25.285156 -9.667969 25.492188 -10.03125 25.492188 -10.492188 C 25.492188 -10.957031 25.054688 -11.34375 24.179688 -11.65625 C 23.304688 -11.96875 22.140625 -12.285156 20.691406 -12.597656 C 19.238281 -12.910156 17.652344 -13.28125 15.9375 -13.710938 C 14.222656 -14.140625 12.5 -14.699219 10.765625 -15.394531 C 9.035156 -16.085938 7.441406 -16.976562 5.988281 -18.066406 C 4.539062 -19.15625 3.375 -20.515625 2.5 -22.148438 C 1.625 -23.785156 1.1875 -25.753906 1.1875 -28.066406 C 1.1875 -29.78125 1.542969 -31.226562 2.253906 -32.394531 C 2.960938 -33.566406 3.902344 -34.515625 5.074219 -35.242188 C 6.246094 -35.96875 7.546875 -36.519531 8.984375 -36.902344 C 10.417969 -37.28125 11.878906 -37.542969 13.363281 -37.691406 C 14.847656 -37.839844 16.234375 -37.914062 17.523438 -37.914062 C 18.84375 -37.914062 20.261719 -37.847656 21.777344 -37.71875 C 23.296875 -37.585938 24.46875 -37.453125 25.292969 -37.320312 L 25.292969 -24.847656 C 24.632812 -25.410156 23.785156 -25.996094 22.746094 -26.605469 C 21.703125 -27.214844 20.433594 -27.726562 18.933594 -28.140625 C 17.429688 -28.550781 15.65625 -28.757812 13.613281 -28.757812 C 11.929688 -28.757812 10.328125 -28.496094 8.8125 -27.964844 C 7.292969 -27.4375 6.046875 -26.769531 5.074219 -25.960938 C 4.101562 -25.152344 3.613281 -24.335938 3.613281 -23.511719 C 3.613281 -22.917969 3.820312 -22.472656 4.230469 -22.175781 C 4.644531 -21.878906 5.132812 -21.679688 5.691406 -21.582031 C 6.253906 -21.480469 6.765625 -21.433594 7.226562 -21.433594 C 8.578125 -21.433594 10.140625 -21.566406 11.902344 -21.828125 C 13.667969 -22.09375 15.425781 -22.222656 17.175781 -22.222656 C 18.460938 -22.222656 19.707031 -22.085938 20.914062 -21.804688 C 22.117188 -21.523438 23.179688 -21.019531 24.105469 -20.292969 C 25.03125 -19.566406 25.761719 -18.527344 26.308594 -17.175781 C 26.851562 -15.824219 27.125 -14.074219 27.125 -11.929688 C 27.125 -9.617188 26.671875 -7.664062 25.761719 -6.0625 C 24.855469 -4.464844 23.667969 -3.167969 22.199219 -2.179688 C 20.730469 -1.1875 19.15625 -0.476562 17.472656 -0.0507812 C 15.789062 0.378906 14.171875 0.59375 12.621094 0.59375 C 11.894531 0.59375 10.996094 0.578125 9.925781 0.542969 C 8.851562 0.511719 7.738281 0.46875 6.582031 0.421875 C 5.429688 0.371094 4.347656 0.3125 3.339844 0.246094 C 2.335938 0.179688 1.5 0.0976562 0.839844 0 Z M 0.839844 0 "/></g></g></g></svg>